<svg width="215" height="80" viewBox="0 0 215 80" fill="none" xmlns="http://www.w3.org/2000/svg">
<path d="M106.15 0.337402C113.262 0.337402 119.798 2.21255 125.758 5.96284C131.718 9.71314 136.377 14.7725 139.735 21.1409C143.127 27.474 144.823 34.4438 144.823 42.0506C144.823 49.6219 143.127 56.6272 139.735 63.0664C136.535 69.2018 132.154 74.1166 126.593 77.8109L111.722 76.2386L111.41 53.4146C118.619 53.8705 124.912 48.0343 125.646 40.0296L125.706 39.3775C125.805 38.2972 125.09 37.3231 124.109 37.2018L113.629 35.9064C112.313 33.1085 109.702 31.3208 106.88 31.2439L105.166 25.1256C104.859 24.0313 103.523 23.8467 103.001 24.8265L100.903 28.7671L96.5976 23.4736C95.9024 22.6189 94.6266 23.0719 94.5307 24.2076L93.6854 34.2127C93.6721 34.3699 93.6841 34.5213 93.7169 34.663L92.1086 57.1561L72.8808 63.6159C72.7912 63.4513 72.7023 63.2859 72.6143 63.1194C69.2229 56.6803 67.5271 49.6573 67.5271 42.0506C67.5271 34.6207 69.1899 27.6862 72.5155 21.2471C75.8411 14.8786 80.5003 9.80159 86.4929 6.01591C92.4856 2.23024 99.038 0.337402 106.15 0.337402Z" fill="#1836D2"/>
<path fill-rule="evenodd" clip-rule="evenodd" d="M54.417 69.8916C56.5285 67.8679 58.3196 65.5132 59.7903 62.8276C62.6775 57.595 64.1211 51.8999 64.1211 45.7422C64.1211 39.7001 62.7176 34.0483 59.9106 28.7868C57.1035 23.4964 53.1469 19.4635 48.0407 16.6882C42.9346 13.9129 37.1199 12.5253 30.5969 12.5253H0V78.6989H29.9954C35.9261 78.6989 41.2792 77.6232 46.0547 75.4719C41.1403 74.7005 35.7564 72.3196 32.081 66.6541C31.2802 65.4196 31.5313 63.714 32.6419 62.8445C33.7526 61.9751 35.3021 62.271 36.103 63.5055C39.0468 68.0434 43.6424 69.8511 48.1514 70.2333C50.3899 70.423 52.523 70.2495 54.2576 69.9223C54.3113 69.9122 54.3644 69.902 54.417 69.8916ZM28.632 37.8499C31.4657 37.8499 33.5643 38.5148 34.9278 39.8446C36.3179 41.1456 37.013 43.0247 37.013 45.482C37.013 48.2862 36.2912 50.3098 34.8476 51.5529C33.4039 52.7671 31.0514 53.3742 27.7898 53.3742H27.068V37.8499H28.632Z" fill="#1836D2"/>
<path d="M200.221 13.9129C194.847 12.294 189.634 11.4845 184.581 11.4845C177.684 11.4845 171.682 12.9011 166.576 15.7342C161.443 18.5673 157.5 22.6146 154.747 27.8761C151.966 33.1955 150.576 39.0352 150.576 45.3952C150.576 52.5359 152.26 58.8959 155.629 64.4754C159.051 70.0839 163.488 74.03 168.942 76.3138C174.476 78.6266 181.627 79.783 190.396 79.783C191.252 79.783 192.428 79.7541 193.925 79.6962C195.422 79.6673 197.253 79.5951 199.419 79.4794L212.772 78.7856V43.0969H185.664V53.461C182.296 53.461 179.823 52.825 178.246 51.5529C176.668 50.252 175.88 48.1994 175.88 45.3952C175.88 42.5332 176.815 40.2638 178.687 38.5871C180.558 36.8525 183.031 35.9852 186.105 35.9852C190.704 35.9852 195.73 37.4018 201.183 40.2349L214.256 20.3308C212.251 19.001 210.072 17.8012 207.72 16.7316C205.394 15.6619 202.894 14.7224 200.221 13.9129Z" fill="#1836D2"/>
</svg>
